<svg class="svg-icon" style="width: 1em;height: 1em;vertical-align: middle;fill: currentColor;overflow: hidden;" viewBox="0 0 1024 1024" version="1.1" xmlns="http://www.w3.org/2000/svg"><path d="M513 483.2c-75.2 0-136.5-61.2-136.5-136.5S437.8 210.3 513 210.3s136.5 61.2 136.5 136.4S588.2 483.2 513 483.2z m0-206.8c-38.8 0-70.4 31.6-70.4 70.4 0 38.8 31.6 70.4 70.4 70.4s70.4-31.6 70.4-70.4c0-38.9-31.6-70.4-70.4-70.4zM304.6 828.9c-75.2 0-136.5-61.2-136.5-136.4S229.4 556 304.6 556s136.5 61.2 136.5 136.5-61.2 136.4-136.5 136.4z m0-206.9c-38.8 0-70.4 31.6-70.4 70.4 0 38.8 31.6 70.4 70.4 70.4s70.4-31.6 70.4-70.4c0-38.8-31.6-70.4-70.4-70.4zM710 763.8c-75.2 0-136.5-61.2-136.5-136.4S634.8 490.9 710 490.9s136.4 61.2 136.4 136.5S785.3 763.8 710 763.8z m0-206.8c-38.8 0-70.4 31.6-70.4 70.4 0 38.8 31.6 70.4 70.4 70.4 38.8 0 70.4-31.6 70.4-70.4 0-38.9-31.5-70.4-70.4-70.4z"  /><path d="M917.2 940.9H108.8c-18.2 0-33-14.8-33-33V140c0-18.2 14.8-33 33-33h808.3c18.2 0 33 14.8 33 33v767.9c0.1 18.2-14.7 33-32.9 33z m-775.3-66h742.3V173H141.9v701.9z"  /><path d="M364.3 622c-5.4 0-10.8-1.3-15.8-4.1-16-8.8-21.9-28.8-13.1-44.8l76-138.8c8.7-16 28.8-21.9 44.8-13.1 16 8.8 21.9 28.8 13.1 44.8l-76 138.8c-6 11-17.3 17.2-29 17.2zM670.4 564.9c-10 0-19.9-4.5-26.4-13.1l-84.6-111.7c-11-14.5-8.1-35.2 6.4-46.3 14.5-11.1 35.2-8.1 46.3 6.4l84.6 111.7c11 14.5 8.1 35.2-6.4 46.3-6 4.5-13 6.7-19.9 6.7z"  /></svg>